<svg width="1200" height="600" version="1.1" viewBox="0 0 1200 600.00002" xmlns="http://www.w3.org/2000/svg">
 <g transform="translate(0,-522.51965)">
  <path d="m0 522.51965h1200v600.00005h-1200z" fill="#da251c" style="paint-order:fill markers stroke"/>
  <path d="m0 522.51965 1200 300-1200 300.00005z" fill="#fff" style="paint-order:fill markers stroke"/>
  <g transform="matrix(1.3730452,0,0,1.3730452,1163.2367,10.355094)">
   <path d="m-614.56281 504.86573c-0.81807-0.17231-2.02495-0.68497-2.54405-1.08025-0.64437-0.49051-1.43684-1.39397-1.76795-2.01564-0.48358-0.90773-0.60697-1.3427-0.66507-2.34302-0.0901-1.55675 0.25307-2.66147 1.09054-3.51243 0.6573-0.66753 1.19911-0.89214 2.14824-0.89039 1.13899 3e-3 1.74472 0.34491 2.3182 1.31305 0.19968 0.33748 0.22586 0.47014 0.22586 1.14492 0 0.87648-0.12388 1.21135-0.64257 1.73532-0.42823 0.43249-0.97027 0.63546-1.52275 0.57008-0.23406-0.0284-0.47225-0.0786-0.52932-0.11535-0.18982-0.11878-0.64536-0.16131-0.87928-0.0817-0.4532 0.15238-0.4869 1.23076-0.0625 2.01017 0.4511 0.82819 1.54883 1.62181 2.63595 1.90512 0.63349 0.16487 1.97193 0.16206 2.61532-8e-3 0.69601-0.18102 1.185-0.4803 1.74361-1.06635 0.51526-0.54055 0.92013-1.26527 1.1553-2.06697 0.13722-0.46868 0.1507-1.2077 0.17275-9.35028 0.0267-9.80541 0.0647-9.09999-0.52233-9.41427-0.34257-0.18315-0.17082-0.16736-1.95908-0.17939l-1.56885-0.0135v-1.35704h10.85531v1.34436l-1.20876 0.028c-1.37209 0.0334-1.63225 0.11173-1.8655 0.57879-0.1382 0.27647-0.14801 0.86995-0.14814 8.70653-1.7e-4 9.27521 0.0136 9.06123-0.53301 10.34554-0.74765 1.76586-2.23011 2.98154-4.44278 3.64241-0.64932 0.19386-0.93543 0.22782-2.14835 0.25334-0.96507 0.0177-1.57057-0.01-1.95077-0.0862zm64.90067-0.17839c-0.70688-0.19058-1.23956-0.50451-1.67712-0.98825-0.79976-0.88547-1.04181-1.72433-1.47667-5.12959-0.13619-1.06465-0.31165-2.22162-0.39053-2.57148-0.31268-1.39303-0.94658-2.25302-2.07739-2.81921-0.95726-0.47913-1.45335-0.57712-3.19948-0.63335l-1.5479-0.0486v5.0125c0 3.45705 0.0301 5.07544 0.0934 5.21631 0.19198 0.42135 0.5729 0.51394 2.2603 0.55017l1.54768 0.0356v1.25597h-11.44907v-1.25599l1.54807-0.0333c1.68886-0.0365 1.94644-0.0979 2.24634-0.55568 0.14027-0.21359 0.15054-0.84987 0.17274-10.23873 0.0187-8.95332 0.0134-10.04845-0.11013-10.36476-0.23309-0.61489-0.3685-0.65835-2.20339-0.70658l-1.61114-0.0426v-1.27218h6.91184c7.50818 0 7.67888 0.0126 9.1172 0.47357 1.14846 0.37117 1.92591 0.83998 2.71937 1.63942 1.18312 1.19248 1.6104 2.3489 1.54608 4.18587-0.0536 1.52172-0.47983 2.5411-1.47526 3.52682-1.11678 1.10601-2.62747 1.72315-5.05021 2.06297-0.55219 0.0766-0.98608 0.15905-0.96432 0.18119 0.02 0.02 0.41296 0.16245 0.86864 0.31226 1.47205 0.48401 2.09512 0.82331 2.72362 1.48339 0.86009 0.90306 1.19532 1.73837 1.99957 4.98382 0.4735 1.90937 0.80314 2.73738 1.28197 3.22222 0.29372 0.29706 0.41233 0.36031 0.67538 0.36031 0.25338 0 0.37561-0.0605 0.59141-0.28825 0.4693-0.49814 0.69809-1.19982 0.8521-2.61644l0.0532-0.48767h1.14654l-0.0371 0.48767c-0.056 0.75038-0.3454 2.10928-0.5675 2.65614-0.5625 1.38435-1.5039 2.20633-2.802 2.44622-0.65132 0.12036-1.17003 0.10866-1.71712-0.0383zm-6.25585-13.43785c2.9246-0.30988 4.40828-1.45288 4.79913-3.69623 0.12406-0.71382 0.053-2.61277-0.12166-3.23719-0.40283-1.44006-1.30196-2.4011-2.51685-2.68936-0.85769-0.2036-3.34385-0.33273-4.50268-0.23372-1.08061 0.0925-1.52331 0.24487-1.67428 0.5773-0.0685 0.15025-0.0971 1.54652-0.0971 4.78746v4.57562l1.67523-2e-3c0.92106-8.1e-4 2.01838-0.0384 2.43803-0.0817zm-41.42883 12.68475v-0.62933l0.5727-0.0602c0.66599-0.0704 1.31192-0.29073 1.71182-0.58606 0.35173-0.25891 0.90549-0.98259 1.13914-1.48797 0.0973-0.20997 2.0878-5.15198 4.42345-10.98243l4.24676-10.60118 0.56932-0.0245c0.4845-0.0191 0.57771-3e-3 0.6247 0.1272 0.0324 0.083 2.03117 5.18996 4.4453 11.347 3.22689 8.22806 4.45862 11.2768 4.64785 11.50402 0.39235 0.47117 0.90682 0.68063 1.79658 0.73139l0.75614 0.043v1.2487h-9.75276v-1.27209h0.57465c0.80181 0 1.94829-0.15448 2.23119-0.30055 0.32949-0.17048 0.50218-0.44801 0.49765-0.79971-3e-3 -0.17431-0.44074-1.413-1.05169-2.97058l-1.04782-2.67144-4.79695-0.0199c-4.50303-0.018-4.80141-0.0138-4.87607 0.12723-0.2006 0.3754-1.2395 3.18394-1.38841 3.75338-0.22561 0.86389-0.17674 1.42502 0.16149 1.84536 0.54378 0.67575 1.18979 0.93218 2.55088 1.01241l0.86904 0.0507v1.24676h-8.90496zm15.65049-9.31446c-0.11037-0.29169-0.74125-1.90389-1.40091-3.58334-0.65996-1.67902-1.50876-3.84487-1.88651-4.81263-0.37739-0.96795-0.70932-1.75944-0.7365-1.75845-0.0281 6.2e-4 -0.14001 0.23403-0.24947 0.51857-0.10955 0.28475-1.03866 2.60252-2.06477 5.151-1.02624 2.54826-1.89914 4.71923-1.94018 4.82413l-0.0747 0.19084h8.55385zm42.5279 9.31144v-0.63218l0.31814-0.0468c2.22248-0.33789 2.75751-0.64926 3.26235-1.89745l0.19384-0.47884 0.022-9.32725c0.0161-6.77267-4e-3 -9.3904-0.0727-9.55793-0.19984-0.48212-0.39373-0.53327-2.13524-0.56368l-1.59014-0.0285v-1.34385h8.12058l0.50687 1.33584c0.27866 0.73446 1.91377 5.06377 3.63417 9.62039 1.71989 4.55664 3.13678 8.27571 3.1478 8.26432 0.0136-0.0138 0.63166-1.77385 1.37843-3.91698 0.74714-2.14332 2.24937-6.45377 3.33825-9.57906l1.98053-5.68202 4.16965-0.0201 4.17003-0.0201v1.35855l-1.46318 2.1e-4c-1.66838 1.7e-4 -1.94558 0.0752-2.20488 0.59339-0.13858 0.27757-0.14826 0.94793-0.14833 10.3298 0 11.30336-0.0572 10.40306 0.6631 10.72661 0.33687 0.15157 0.60585 0.18413 1.77492 0.2145l1.37837 0.0376v1.25228h-11.19472v-1.25507l1.42049-0.0314c1.2428-0.0259 1.46305-0.0518 1.75985-0.20772 0.6927-0.36339 0.63915 0.59703 0.61497-11.04463l-0.0194-10.35788-0.90656 2.60624c-0.4986 1.4333-1.73134 4.97234-2.73942 7.86424-1.00843 2.89196-2.394 6.87194-3.07974 8.84409l-1.24624 3.58593-0.58226-0.0229-0.58256-0.0229-0.82885-2.2049c-7.36867-19.59432-7.7127-20.50549-7.76107-20.55388-0.0864-0.0862-0.0388 18.18383 0.0481 18.73052 0.19675 1.22376 0.8898 2.1245 1.88547 2.45085 0.39147 0.12824 1.64574 0.34793 1.98717 0.34793 0.0146 0 0.0221 0.2862 0.0221 0.63608v0.63603h-9.24393v-0.63238zm36.80711 8e-3v-0.62671l1.50514-0.0388c1.67913-0.0442 1.98769-0.11657 2.20737-0.51864 0.13563-0.24702 0.14792-0.99607 0.16875-10.28427 0.016-7.90306 0-10.08616-0.084-10.34222-0.0735-0.21942-0.20338-0.38094-0.40439-0.49843-0.26427-0.15488-0.46693-0.17697-1.84455-0.20183l-1.54738-0.0287v-1.34364h11.27934v1.35701l-1.46308 7e-3c-1.68423 8e-3 -1.96751 0.0706-2.22179 0.504-0.17284 0.2947-0.17398 0.36879-0.17398 10.38893 0 11.24335-0.0441 10.45269 0.59377 10.77021 0.29037 0.14461 0.54956 0.17344 1.802 0.19913l1.46308 0.0318v1.25533h-11.27934zm-84.5832-25.9043c-0.0765-0.0845-0.14043-0.18092-0.14043-0.21281 0-0.0432 2.47304-3.62841 2.81787-4.08451 0.0362-0.0455 0.29997-0.40903 0.5886-0.80567 0.94167-1.29526 1.52849-1.70675 2.24362-1.57253 0.65293 0.12244 1.25679 0.99309 1.10486 1.59323-0.14859 0.58772-0.55654 0.98947-2.4039 2.36651-3.3953 2.53126-3.86482 2.87088-3.96786 2.87088-0.058 0-0.16551-0.0706-0.24276-0.1551z" stroke-width=".99999863"/>
   <g stroke="#000" stroke-linecap="round">
    <path d="m-471.78336 516.50628v110.68613c0 46.58447-37.50302 84.0875-84.08749 84.0875s-84.08749-37.50303-84.08749-84.0875v-110.68613z" fill="#da251c" fill-rule="evenodd" stroke-width=".79374999"/>
    <path transform="matrix(.26458333 0 0 .26458333 -565.15078 471.1407)" d="m35.074219 171.46094v736.15234c176.067291 0 317.810551-141.74521 317.810551-317.8125v-418.33984z" fill="#005ca2" fill-rule="evenodd" stroke-width="3"/>
    <path transform="matrix(.26458333 0 0 .26458333 -565.15078 471.1407)" d="m194.58594 684.07812c-19.95282 0.30581-38.41953 10.33226-59.38672 27.33594-41.566963-32.31659-71.810471 2.5622-100.125001 32.00586v164.19336c136.459591 0 252.280941-85.15555 297.494141-205.43359-22.68296-12.12561-48.76445-13.14166-69.67774 12.88281-26.91327-21.87521-48.35186-31.29018-68.30468-30.98438z" fill="#006d34" stroke-width="2.00000024"/>
   </g>
   <g stroke="#000" stroke-linecap="round" stroke-width=".5291667">
    <path d="m-529.37918 659.36887c-2.7798 2.52174-5.65802 6.02772-8.58034 9.97464" fill="none"/>
    <path d="m-495.59407 660.33415c3.18188 3.04862 5.24881 5.99589 6.86427 8.90211" fill="none"/>
    <path d="m-619.57086 668.3656v-26.35449l-0.54985-1.74432 2.35105-1.82017v-2.42689h1.99081l6.09839-6.68207v-30.27783l-1.22566-1.22565v-3.41282h1.74433l5.76385-10.27635 7.7893-51.98848 7.7893 51.98848 5.76385 10.27635h1.74433v3.41282l-1.22566 1.22565v30.27783l6.09839 6.68207h1.99081v2.42689l2.35105 1.82017-0.54985 1.74432v26.35449z" fill="#d8d8d6"/>
   </g>
   <g fill="none" stroke="#000" stroke-linecap="round" stroke-width=".5291667">
    <path d="m-617.76966 638.44662h22.16102"/>
    <path d="m-609.68046 629.33766v9.10896"/>
    <path d="m-620.12071 640.26679h24.51207"/>
    <path d="m-619.57086 642.01111h23.96222"/>
    <path d="m-610.83028 638.44662-1.896 1.82017 0.87216 1.74432v26.35449"/>
    <circle cx="-595.54169" cy="598.94415" r="2.2368426"/>
    <path d="m-592.65562 598.94427c5e-5 -1.59399-1.29214-2.88618-2.88613-2.88613-1.59378 2.4e-4 -2.88566 1.29235-2.88561 2.88613"/>
    <path d="m-609.68046 599.05983 11.2501-0.0925"/>
    <path d="m-610.90612 597.83418 12.71316-0.0299"/>
    <path d="m-595.60864 532.15653-3.37851 52.24158-2.14507 13.41308"/>
    <path d="m-600.8109 598.9869v39.45972l-1.87653 1.82017 1.00709 1.74432v26.35449"/>
    <path d="m-599.84519 668.3656v-15.37836h4.23655v15.37836"/>
   </g>
   <g stroke="#000" stroke-linecap="round" stroke-width=".5291667">
    <circle cx="-595.6087" cy="627.22021" r="2.0175922" fill-rule="evenodd"/>
    <path d="m-598.24866 616.55569v-7.54762c0-1.49974 1.20737-2.70711 2.7071-2.70711 1.49974 0 2.70711 1.20737 2.70711 2.70711v7.54762z" fill-rule="evenodd"/>
    <path d="m-595.6575 603.72589a2.2020974 2.2020974 0 0 0-1.45934 0.59841h-1.33532v0.82372h1.63607a1.438631 1.438631 0 0 1 1.20716-0.65939 1.438631 1.438631 0 0 1 1.20923 0.65939h1.63453v-0.82372h-1.33635a2.2020974 2.2020974 0 0 0-1.55598-0.59841z" fill="none"/>
    <path d="m-595.6575 622.85185a2.2020974 2.2020974 0 0 0-1.45934 0.59841h-1.33532v0.82372h1.63607a1.438631 1.438631 0 0 1 1.20716-0.65939 1.438631 1.438631 0 0 1 1.20923 0.65939h1.63453v-0.82372h-1.33635a2.2020974 2.2020974 0 0 0-1.55598-0.59841z" fill="none"/>
    <rect x="-604.2619" y="583.79944" width="17.438696" height="1.1166704" fill="#d8d8d6" fill-rule="evenodd"/>
   </g>
   <g fill="none" stroke="#000" stroke-linecap="round" stroke-width=".5291667">
    <path d="m-573.44762 638.44662h-22.16102"/>
    <path d="m-581.53682 629.33766v9.10896"/>
    <path d="m-571.09657 640.26679h-24.51207"/>
    <path d="m-571.64642 642.01111h-23.96222"/>
    <path d="m-580.387 638.44662 1.896 1.82017-0.87216 1.74432v26.35449"/>
    <path d="m-581.53682 599.05983-11.2501-0.0925"/>
    <path d="m-580.31116 597.83418-12.71316-0.0299"/>
    <path d="m-595.60864 532.15653 3.37851 52.24158 2.14507 13.41308"/>
    <path d="m-590.40638 598.9869v39.45972l1.87653 1.82017-1.00709 1.74432v26.35449"/>
    <path d="m-591.37209 668.3656v-15.37836h-4.23655v15.37836"/>
   </g>
   <ellipse cx="-595.60876" cy="531.82361" rx=".89520836" ry="1.6477349" fill="#d8d8d6" fill-rule="evenodd" stroke="#000" stroke-linecap="round" stroke-width=".5291667"/>
   <rect x="-596.86353" y="531.45929" width="2.5096023" height=".72859424" ry=".36429712" fill="#d8d8d6" fill-rule="evenodd" stroke="#000" stroke-linecap="round" stroke-width=".5291667"/>
   <g fill="none" stroke="#000" stroke-linecap="round" stroke-width=".5291667">
    <path d="m-595.60864 530.17587v-3.90958"/>
    <path d="m-595.99073 528.55214h0.8044"/>
    <path d="m-595.99073 528.26404h0.8044"/>
    <path d="m-596.10753 527.96248h1.03809"/>
    <path d="m-596.10753 527.37958h1.03809"/>
    <path d="m-595.99073 527.68127h0.8044"/>
    <path d="m-595.99073 527.0851h0.8044"/>
    <path d="m-596.10753 526.80351h1.03809"/>
   </g>
   <path d="m-539.22926 601.72647c-2.27063-4.81358-4.59039-4.98174-6.73817-6.24695-1.30825-0.77066-2.32167-2.44797-3.62991-3.70345l5.50344-10.09782 7.71463 4.0293c1.2382 3.16291 0.38866 6.76746 4.66809 9.28704" fill="#f5b900" stroke="#000" stroke-linecap="round" stroke-width=".5291667"/>
   <g fill="#d8d8d6" stroke="#000" stroke-linecap="round" stroke-width=".5291667">
    <path d="m-542.71806 578.43516c-2.61257 4.64464-3.85891 10.06999-5.65084 15.18358-3.29082-0.77281-3.41581 3.29591-1.84041 4.09886 2.43135 1.23921 3.88087 0.30631 5.62402-3.21439 3.60591-3.99349 4.79606-8.6421 6.19136-13.2672"/>
    <path d="m-548.3689 593.61874c1.32606 0.40264 1.12008 2.57846-0.58965 2.06378"/>
    <path d="m-543.14304 576.53134c-0.82171-0.47511-4.99833-3.32385-6.36987-0.40444-1.51215 3.21873 3.79208 4.14039 3.26013 1.18622l2.50169 1.37246"/>
    <path d="m-538.3134 582.26438c0.85908 0.67693 3.7661 2.9394 5.49522 1.16129 1.03007-1.05926 0.78174-2.36911 0.32122-3.0337-1.00497-1.45034-3.86887-0.74634-2.39399 1.6813l-2.67541-1.56356"/>
    <path d="m-542.91719 577.62583c6.26609-9.88679 16.2458-22.1402 29.12432-29.83195 12.30873-7.35144 27.51228-9.33502 27.37213-8.11032-0.0869 0.7597-14.52741 3.46167-27.69928 13.58693-13.1374 10.09875-24.76668 27.135-24.76668 27.135"/>
    <path d="m-540.90195 579.08515c7.04794-10.64485 14.33291-18.20832 21.75079-24.044"/>
    <rect transform="rotate(34.713319)" x="-118.5767" y="782.862" width="8.1529293" height="2.7798405" ry=".51192111" fill-rule="evenodd"/>
   </g>
   <g fill="#f5b900" stroke="#000" stroke-linecap="round" stroke-width=".5291667">
    <path d="m-549.25341 589.76142c-1.79283-0.52783-2.11133 1.22901-1.40079 2.16236 0.53146 0.6981 2.83384 1.09054 3.82674 1.26452 1.47019 0.25762 2.98661-1.31098 0.42404-2.32128"/>
    <path d="m-548.76015 586.89445c-1.79283-0.52783-2.0646 1.42216-1.32709 2.33434 0.89599 1.1082 3.90476 1.78951 4.76036 1.82961 2.32751 0.10908 2.88833-2.04805-0.0182-2.83723"/>
    <path d="m-547.60541 583.57765c-2.12661-0.71326-2.72488 1.19743-1.52365 2.85029 1.62826 2.24043 4.59269 2.45991 5.44829 2.49297 2.32833 0.09 2.02842-2.58857-0.87811-3.37775z"/>
    <path d="m-545.59171 580.95812c-3.04395-1.00286-3.65835 1.11552-2.26939 2.54949 1.32029 1.36308 3.92971 2.03219 4.51928 2.0006 1.60445-0.0863 1.16432-2.36057-0.8978-2.83333z"/>
    <path d="m-539.91719 591.039c-0.49388-1.28706-1.306-2.04372-0.68793-5.18404-1.40795-0.29274-1.24419-2.45237-1.22844-2.84999-0.85808 1.54514-4.77135-1.02502-3.78361-2.50603 0.60873 2e-3 1.54933 0.0807 2.28851 0.18278 0.77005 0.10635 1.33617 0.24098 1.82827 0.49988 1.21132 0.6373 2.10962 1.70019 3.00353 2.5897 0.70347 0.70002 1.43229 1.19913 2.11759 1.93625"/>
   </g>
   <path d="m-535.1689 608.89694c0.17372 0 0.85342 1.37951 0.85342 1.37951 3.13131 6.96426 6.69184 9.44013 11.76803 14.22135 4.62425 4.35555 7.42306 10.26165 12.96819 9.02549 4.55554-1.01555 6.84306-4.28127 11.07173-8.51897 5.04662-5.0574 11.78449-8.14894 17.49727-16.72963 5.23052-7.85633 6.87791-14.4884 5.87247-18.7008-0.90895-3.8081-6.87502-6.63115-10.16232-5.75032-6.9038 1.84987-11.77771 9.53113-16.12955 15.87548-4.03643 5.88452-7.23565 10.70403-8.39228 11.71695-0.44372-0.13477-0.74309-0.0675-0.9555 0.12161-0.51405-0.3665-0.74664-0.1138-1.04237 0-0.25573-0.57145-0.69987-0.76609-1.37246-0.50382-3.8425-2.30419-7.38796-6.14312-10.96226-9.83302" fill="#da251c" stroke="#000" stroke-linecap="round" stroke-width=".5291667"/>
   <g fill="none" stroke="#000" stroke-linecap="round" stroke-width=".5291667">
    <path d="m-513.19227 611.03379c-0.66434 0.65971-0.92655 1.53594-0.99025 2.51907"/>
    <path d="m-511.81981 611.53761c-0.71064 1.06481-0.86396 2.27825-0.88602 3.52668"/>
    <path d="m-510.77744 611.53761c-0.28204 3.01107 0.24697 4.55212 0.67754 6.27159"/>
    <path d="m-509.82194 611.416c0.11668 1.28405 0.72876 2.18681 1.00763 2.27583"/>
    <path d="m-502.38821 601.09899c4.27144-1.04333 7.01303 3.32701 6.6209 4.41024-0.44345 1.22499-6.58773-1.14143-4.01896-8.21471"/>
    <path d="m-500.45983 598.30196c4.19359-1.89973 7.13464 3.27489 6.74251 4.35812-0.44345 1.22499-6.58773-1.14143-4.01896-8.21471"/>
    <path d="m-498.60094 595.60917c4.27144-1.04333 7.2215 3.44862 6.82937 4.53185-0.44345 1.22499-6.55298-1.24567-3.98421-8.31895"/>
   </g>
   <path d="m-540.11374 600.00665c3.94828-2.11655 6.15661-5.61123 6.48618-6.36335 0.77084-1.75912 9.95495 7.17404 10.93316 7.59179l-0.66335 1.13017c-3.57986 2.41891-7.01331 4.39861-10.95773 7.91119 0 0-1.42892-0.19971-1.91638-0.73707-0.60178-0.66338-1.5344-3.04998-2.37373-4.74647-1.12273-2.26929-2.44752-4.28269-1.50815-4.78626z" fill="#da251c" stroke="#000" stroke-linecap="round" stroke-width=".5291667"/>
  </g>
 </g>
</svg>
